<?xml version="1.0" encoding="UTF-8" standalone="no"?>
<svg
   inkscape:export-ydpi="90"
   inkscape:export-xdpi="90"
   inkscape:export-filename="/home/Belliash/Documents/Repositories/XT/Media/Graphics/Logos/XTchain/xtchain_logo.png"
   sodipodi:docname="xtchain_logo.svg"
   inkscape:version="1.2.1 (9c6d41e410, 2022-07-14)"
   id="svg1853"
   version="1.1"
   viewBox="0 0 127 127"
   height="480"
   width="480"
   xmlns:inkscape="http://www.inkscape.org/namespaces/inkscape"
   xmlns:sodipodi="http://sodipodi.sourceforge.net/DTD/sodipodi-0.dtd"
   xmlns="http://www.w3.org/2000/svg"
   xmlns:svg="http://www.w3.org/2000/svg"
   xmlns:rdf="http://www.w3.org/1999/02/22-rdf-syntax-ns#"
   xmlns:cc="http://creativecommons.org/ns#"
   xmlns:dc="http://purl.org/dc/elements/1.1/">
  <title
     id="title2448">XTchain Logo</title>
  <defs
     id="defs1847" />
  <sodipodi:namedview
     inkscape:window-maximized="1"
     inkscape:window-y="0"
     inkscape:window-x="0"
     inkscape:window-height="1347"
     inkscape:window-width="2560"
     units="px"
     showgrid="false"
     inkscape:document-rotation="0"
     inkscape:current-layer="layer1"
     inkscape:document-units="mm"
     inkscape:cy="234.28571"
     inkscape:cx="-68.571429"
     inkscape:zoom="0.35"
     inkscape:pageshadow="2"
     inkscape:pageopacity="0.0"
     borderopacity="1.0"
     bordercolor="#666666"
     pagecolor="#ffffff"
     id="base"
     inkscape:showpageshadow="2"
     inkscape:pagecheckerboard="0"
     inkscape:deskcolor="#d1d1d1" />
  <metadata
     id="metadata1850">
    <rdf:RDF>
      <cc:Work
         rdf:about="">
        <dc:format>image/svg+xml</dc:format>
        <dc:type
           rdf:resource="http://purl.org/dc/dcmitype/StillImage" />
        <dc:title>XTchain Logo</dc:title>
        <dc:date>12/08/2020</dc:date>
        <dc:creator>
          <cc:Agent>
            <dc:title>Rafal Kupiec</dc:title>
          </cc:Agent>
        </dc:creator>
        <dc:rights>
          <cc:Agent>
            <dc:title>CodingWorkshop</dc:title>
          </cc:Agent>
        </dc:rights>
        <dc:publisher>
          <cc:Agent>
            <dc:title>CodingWorkshop</dc:title>
          </cc:Agent>
        </dc:publisher>
      </cc:Work>
    </rdf:RDF>
  </metadata>
  <g
     id="layer1"
     inkscape:groupmode="layer"
     inkscape:label="Layer 1">
    <g
       transform="matrix(0.26458333,0,0,0.26458333,-3.9306069,-6.1389898)"
       id="g1823">
      <g
         id="g1800">
        <path
           style="fill:#fad24d"
           d="m 45.986,144.06 h 420.022 c 12.052,0 21.91,9.858 21.91,21.91 V 427.724 H 24.072 V 165.97 c 0,-12.053 9.858,-21.91 21.914,-21.91 z"
           id="path1018" />
        <path
           style="fill:#edb937"
           d="M 177.274,105.405 H 441.34 c 12.052,0 21.915,9.858 21.915,21.915 v 16.739 H 48.75 V 127.32 91.068 c 0,-3.735 3.057,-6.797 6.797,-6.797 h 114.936 c 3.74,0 6.797,3.062 6.797,6.797 v 14.337 z"
           id="path1020" />
        <path
           style="fill:#fefefe"
           d="m 78.404,125.334 h 380.453 c 8.033,0 14.611,6.573 14.611,14.611 v 5.431 c -2.331,-0.853 -4.844,-1.317 -7.459,-1.317 H 63.792 v -4.114 c 0,-8.038 6.575,-14.611 14.612,-14.611 z"
           id="path1022" />
        <path
           style="fill:#edb937"
           d="m 487.924,418.008 v 9.716 H 24.076 v -9.716 z"
           id="path1024" />
      </g>
      <g
         id="g1808">
        <g
           id="g1077"
           transform="matrix(0.55996177,0,0,0.55996177,275.6895,46.459227)">
          <path
             id="path1026"
             d="m 300.2,295.963 5.233,-19.939 -11.839,-4.645 c 0.398,-4.469 0.374,-8.971 -0.071,-13.441 l 11.792,-4.768 -5.441,-19.886 -12.559,1.895 c -1.867,-4.033 -4.133,-7.92 -6.797,-11.611 l 7.825,-10.019 -14.654,-14.503 -9.939,7.93 c -3.721,-2.621 -7.631,-4.849 -11.678,-6.673 l 1.763,-12.583 -19.939,-5.233 -4.645,11.839 c -4.469,-0.398 -8.971,-0.379 -13.441,0.071 l -4.768,-11.792 -20.098,5.44 1.681,12.56 v 0.019 c -3.992,1.867 -7.704,4.133 -11.396,6.797 l -9.912,-7.83 -14.449,14.654 7.956,9.939 c -2.621,3.721 -4.835,7.63 -6.66,11.678 l -12.576,-1.768 -5.229,19.939 11.841,4.645 c -0.398,4.469 -0.373,8.971 0.072,13.441 l -11.791,4.768 5.441,19.882 12.559,-1.895 c 1.867,4.028 4.133,7.915 6.797,11.607 l -7.825,10.019 14.654,14.503 9.939,-7.93 c 3.716,2.621 7.63,4.849 11.678,6.673 l -1.763,12.583 19.939,5.233 4.645,-11.839 c 4.469,0.398 8.971,0.374 13.441,-0.071 l 4.768,11.792 19.882,-5.44 -1.895,-12.559 c 4.028,-1.867 7.92,-4.133 11.611,-6.797 l 10.019,7.825 14.503,-14.654 -7.93,-9.939 c 2.621,-3.716 4.849,-7.63 6.673,-11.678 z m -54.209,-8.085 c -12.626,12.754 -33.2,12.863 -45.953,0.237 -12.754,-12.621 -12.863,-33.195 -0.237,-45.953 12.625,-12.754 33.199,-12.863 45.953,-0.237 12.753,12.625 12.862,33.199 0.237,45.953 z"
             style="fill:#ffffff" />
          <path
             id="path1028"
             d="m 222.895,223.056 c -23.171,0 -41.958,18.782 -41.958,41.958 0,23.171 18.782,41.958 41.958,41.958 23.171,0 41.958,-18.782 41.958,-41.958 10e-4,-23.17 -18.782,-41.958 -41.958,-41.958 z m 23.096,64.822 c -12.626,12.754 -33.2,12.863 -45.953,0.237 -12.754,-12.625 -12.858,-33.2 -0.237,-45.953 12.625,-12.754 33.199,-12.863 45.953,-0.237 12.753,12.625 12.862,33.199 0.237,45.953 z"
             style="fill:#ecf0f1" />
        </g>
        <g
           id="g1073"
           transform="matrix(0.55996177,0,0,0.55996177,275.6895,46.459227)">
          <path
             id="path1030"
             d="m 364.571,342.737 c 0.128,-2.355 0.01,-4.74 -0.369,-7.119 l 6.816,-3.881 -7.744,-16.1 -7.347,2.635 c -1.607,-1.792 -3.388,-3.384 -5.299,-4.768 l 2.076,-7.564 -16.858,-5.91 -3.332,7.057 c -2.358,-0.128 -4.741,-0.009 -7.114,0.369 l -3.881,-6.815 -16.1,7.744 2.635,7.342 c -1.792,1.607 -3.384,3.388 -4.768,5.299 l -7.564,-2.076 -5.91,16.863 7.057,3.332 c -0.128,2.355 -0.009,4.74 0.369,7.114 l -6.816,3.886 7.744,16.1 7.342,-2.635 c 1.607,1.792 3.384,3.388 5.294,4.773 l -2.071,7.564 16.863,5.91 3.332,-7.062 c 2.355,0.128 4.744,0.01 7.118,-0.369 l 3.881,6.816 16.1,-7.744 -2.635,-7.342 c 1.792,-1.607 3.384,-3.384 4.768,-5.299 l 7.564,2.076 5.91,-16.863 z m -21.229,10.701 c -6.901,6.971 -18.009,7.033 -24.98,0.128 -6.971,-6.901 -6.97,-18.152 0.016,-25.124 v 0.005 c 6.986,-6.971 18.009,-7.033 24.98,-0.133 6.971,6.9 6.89,18.152 -0.016,25.124 z"
             style="fill:#ffffff" />
          <path
             id="path1032"
             d="m 330.717,315.637 c -13.977,0 -25.309,11.327 -25.309,25.304 0,13.972 11.332,25.304 25.309,25.304 13.972,0 25.304,-11.327 25.304,-25.304 0,-13.978 -11.327,-25.304 -25.304,-25.304 z m 12.625,37.801 c -6.901,6.971 -18.006,7.033 -24.978,0.128 -6.976,-6.901 -6.973,-18.152 0.013,-25.124 v 0.005 c 6.986,-6.976 18.006,-7.033 24.982,-0.133 6.974,6.9 6.889,18.152 -0.017,25.124 z"
             style="fill:#ecf0f1" />
        </g>
      </g>
      <path
         d="m 102.6989,284.4262 c -3.363892,0 -5.405302,2.44377 -3.363892,4.48519 l 50.458362,50.45838 c -34.7602,17.94073 -69.520413,37.00279 -105.401918,56.06483 -3.363893,2.24259 -2.242594,5.60647 1.121298,5.60647 h 75.12691 c 20.18334,-11.21295 39.24537,-22.42594 58.30742,-33.6389 11.21297,11.21296 23.64799,22.42376 34.86095,33.63671 h 58.10159 c 5.06372,0 -0.95891,-5.64416 -1.33594,-5.92403 -16.713,-16.71296 -33.43277,-33.42566 -51.25991,-50.13858 14.53341,-7.82572 29.06453,-16.76398 42.48663,-24.59631 l 79.7413,0.001 c -12.33427,24.66854 -24.29403,49.25826 -36.62829,75.04805 -1.12131,3.36388 -1.12131,5.60627 3.36388,5.60649 l 43.60355,0.002 c 3.3639,1.3e-4 6.09299,-1.67121 7.19208,-3.72088 11.21296,-24.66855 24.3466,-51.18107 36.68087,-76.97091 l 5.9525,-10e-4 45.35339,-0.001 c 3.3639,-10e-4 5.61306,-2.27764 6.73435,-4.52024 5.60649,-10.09168 14.57298,-25.17098 16.81944,-29.15372 0.93965,-1.93503 -1.12127,-2.2426 -4.48517,-2.2426 h -91.82152 v 0.001 h -45.10591 v -0.001 H 272.3498 251.83137 c -20.18333,11.21275 -40.36667,22.4257 -61.67132,32.51741 -11.21297,-10.09171 -22.42595,-21.30466 -33.63891,-32.51764 z"
         style="clip-rule:evenodd;fill:none;fill-rule:evenodd;stroke:#ffffff;stroke-width:11.2129;stroke-miterlimit:4;stroke-dasharray:none;stroke-opacity:1;image-rendering:optimizeQuality;shape-rendering:geometricPrecision;text-rendering:geometricPrecision"
         id="path1064" />
    </g>
  </g>
</svg>
